<?xml version="1.0" encoding="UTF-8" standalone="no"?>
<!-- Created with Inkscape (http://www.inkscape.org/) -->

<svg
   xmlns:dc="http://purl.org/dc/elements/1.1/"
   xmlns:cc="http://creativecommons.org/ns#"
   xmlns:rdf="http://www.w3.org/1999/02/22-rdf-syntax-ns#"
   xmlns:svg="http://www.w3.org/2000/svg"
   xmlns="http://www.w3.org/2000/svg"
   xmlns:sodipodi="http://sodipodi.sourceforge.net/DTD/sodipodi-0.dtd"
   xmlns:inkscape="http://www.inkscape.org/namespaces/inkscape"
   width="340"
   height="250"
   id="svg2988"
   version="1.1"
   inkscape:version="0.48.4 r9939"
   inkscape:export-filename="C:\Users\shota\Documents\ショートカット\html\img\contents4.png"
   inkscape:export-xdpi="90"
   inkscape:export-ydpi="90"
   sodipodi:docname="新規ドキュメント 2">
  <defs
     id="defs2990" />
  <sodipodi:namedview
     id="base"
     pagecolor="#ffffff"
     bordercolor="#666666"
     borderopacity="1.0"
     inkscape:pageopacity="0.0"
     inkscape:pageshadow="2"
     inkscape:zoom="1.910125"
     inkscape:cx="170"
     inkscape:cy="147.94211"
     inkscape:document-units="px"
     inkscape:current-layer="g3811"
     showgrid="false"
     inkscape:window-width="1360"
     inkscape:window-height="745"
     inkscape:window-x="-8"
     inkscape:window-y="-8"
     inkscape:window-maximized="1" />
  <metadata
     id="metadata2993">
    <rdf:RDF>
      <cc:Work
         rdf:about="">
        <dc:format>image/svg+xml</dc:format>
        <dc:type
           rdf:resource="http://purl.org/dc/dcmitype/StillImage" />
        <dc:title></dc:title>
      </cc:Work>
    </rdf:RDF>
  </metadata>
  <g
     inkscape:label="レイヤー 1"
     inkscape:groupmode="layer"
     id="layer1"
     transform="translate(0,-802.36218)">
    <g
       id="g3811"
       transform="translate(40.461049,-31.790824)">
      <g
         id="g3835"
         inkscape:export-filename="C:\Users\shota\Documents\ショートカット\html\img\contents4.png"
         inkscape:export-xdpi="90"
         inkscape:export-ydpi="90"
         transform="matrix(1.2582752,0,0,1.145535,-37.002757,-117.2825)">
        <path
           sodipodi:nodetypes="sssss"
           inkscape:connector-curvature="0"
           d="m 410.96787,68.074732 c 0,38.888708 -44.44863,59.420198 -94.75819,59.420198 -50.30956,0 -76.43479,-38.33137 -76.43479,-77.220081 0,-38.888709 35.5487,-45.8085175 85.85826,-45.8085175 50.30956,0 85.33472,24.7196915 85.33472,63.6084005 z"
           style="fill:#fffaf0;fill-opacity:1;stroke:#000000;stroke-width:0.83292902;stroke-opacity:1"
           transform="translate(-95.9548,802.21791)"
           id="path3837" />
        <path
           sodipodi:nodetypes="sssss"
           inkscape:connector-curvature="0"
           id="path3824"
           d="m 185.17864,930.23637 c 0,3.75877 -2.7032,8.89995 -7.32936,8.89995 -4.62617,0 -8.37642,-3.04708 -8.37642,-6.80584 0,-3.75876 3.75025,-6.80584 8.37642,-6.80584 4.62616,0 7.32936,0.95298 7.32936,4.71173 z"
           style="fill:#fffaf0;fill-opacity:1;stroke:#000000;stroke-width:0.83292902;stroke-linejoin:round;stroke-miterlimit:4;stroke-opacity:1;stroke-dashoffset:0" />
        <path
           sodipodi:nodetypes="sssss"
           inkscape:connector-curvature="0"
           id="path3826"
           d="m 162.66702,939.13631 c 0,1.44568 -1.28915,2.61763 -2.8794,2.61763 -1.59024,0 -2.35586,-1.69548 -2.35586,-3.14116 0,-1.44567 0.76562,-2.0941 2.35586,-2.0941 1.59025,0 2.8794,1.17196 2.8794,2.61763 z"
           style="fill:#fffaf0;fill-opacity:1;stroke:#000000;stroke-width:0.83292902;stroke-linejoin:round;stroke-miterlimit:4;stroke-opacity:1;stroke-dashoffset:0" />
      </g>
    </g>
  </g>
</svg>
