<?xml version="1.0" encoding="UTF-8" standalone="no"?>
<!-- Created with Inkscape (http://www.inkscape.org/) -->

<svg
   xmlns:dc="http://purl.org/dc/elements/1.1/"
   xmlns:cc="http://creativecommons.org/ns#"
   xmlns:rdf="http://www.w3.org/1999/02/22-rdf-syntax-ns#"
   xmlns:svg="http://www.w3.org/2000/svg"
   xmlns="http://www.w3.org/2000/svg"
   xmlns:sodipodi="http://sodipodi.sourceforge.net/DTD/sodipodi-0.dtd"
   xmlns:inkscape="http://www.inkscape.org/namespaces/inkscape"
   width="340"
   height="250"
   id="svg4403"
   version="1.1"
   inkscape:version="0.48.4 r9939"
   sodipodi:docname="contents3.svg"
   inkscape:export-filename="C:\Users\shota\Documents\ショートカット\html\img\contents3.png"
   inkscape:export-xdpi="90"
   inkscape:export-ydpi="90">
  <defs
     id="defs4405" />
  <sodipodi:namedview
     id="base"
     pagecolor="#ffffff"
     bordercolor="#666666"
     borderopacity="1.0"
     inkscape:pageopacity="0.0"
     inkscape:pageshadow="2"
     inkscape:zoom="1.992"
     inkscape:cx="170"
     inkscape:cy="196.24761"
     inkscape:document-units="px"
     inkscape:current-layer="g5028"
     showgrid="false"
     inkscape:window-width="1360"
     inkscape:window-height="745"
     inkscape:window-x="-8"
     inkscape:window-y="-8"
     inkscape:window-maximized="1" />
  <metadata
     id="metadata4408">
    <rdf:RDF>
      <cc:Work
         rdf:about="">
        <dc:format>image/svg+xml</dc:format>
        <dc:type
           rdf:resource="http://purl.org/dc/dcmitype/StillImage" />
        <dc:title></dc:title>
      </cc:Work>
    </rdf:RDF>
  </metadata>
  <g
     inkscape:label="レイヤー 1"
     inkscape:groupmode="layer"
     id="layer1"
     transform="translate(0,-802.36218)">
    <path
       style="fill:none;stroke:none"
       d="m 162.97189,125.3012 0,-100.90361 75.0502,0 75.0502,0 0,100.90361 0,100.90362 -75.0502,0 -75.0502,0 0,-100.90362 z m 76.13418,76.68173 -0.28025,-22.21385 1.93406,20.58233 c 1.06373,11.32028 2.05305,21.26004 2.19847,22.08835 0.24905,1.41859 0.1022,-9.26358 -0.39338,-28.61446 -0.12021,-4.69377 -0.11995,-8.08233 5e-4,-7.53012 0.12052,0.55221 1.13806,8.90567 2.2612,18.56325 1.12314,9.65758 2.14117,17.65834 2.26229,17.77946 0.34424,0.34424 0.34697,0.37429 -2.03882,-22.48216 -1.24247,-11.90314 -2.23899,-21.92437 -2.21448,-22.26939 0.0245,-0.34501 1.81238,9.27428 3.97305,21.37621 2.16068,12.10193 4.08096,22.15464 4.26729,22.33936 0.18633,0.18471 0.20138,-0.45482 0.0334,-1.42119 -1.06352,-6.11998 -5.82592,-39.93735 -5.70498,-40.51058 0.0812,-0.385 2.1513,8.40296 4.60017,19.52879 2.44888,11.12583 4.66482,20.45468 4.92433,20.73079 0.30397,0.32342 0.37973,0.23413 0.21297,-0.25101 -0.56253,-1.63642 -7.90384,-41.26091 -7.68504,-41.47972 0.12854,-0.12853 0.38543,0.39806 0.57088,1.1702 1.5239,6.34508 9.02828,33.74202 9.19635,33.57395 0.1179,-0.1179 -2.18991,-9.28787 -5.12848,-20.37771 -2.93858,-11.08984 -5.27273,-20.37371 -5.18703,-20.63083 0.0857,-0.25712 3.54015,9.70241 7.67654,22.13229 4.13647,12.42988 7.68595,22.59978 7.88781,22.59978 0.20186,0 0.26664,-0.28238 0.14394,-0.62751 -0.96885,-2.72526 -10.79436,-38.26376 -10.67663,-38.61696 0.0832,-0.24978 2.94835,7.17911 6.36688,16.50862 7.29323,19.90398 7.646,20.82555 7.88158,20.58996 0.0987,-0.0987 -2.75388,-8.97319 -6.33914,-19.72102 -3.58526,-10.74783 -6.45316,-19.73802 -6.3731,-19.97819 0.0801,-0.24017 2.55227,5.29284 5.49381,12.29558 9.86965,23.49608 10.55268,25.07341 10.76538,24.8607 0.11654,-0.11654 -3.41997,-9.98925 -7.85891,-21.93933 -4.43895,-11.95009 -8.00666,-21.91989 -7.92826,-22.15511 0.0784,-0.23521 4.31731,8.84777 9.41979,20.18442 5.10248,11.33664 9.34002,20.42372 9.41676,20.19351 0.0767,-0.23022 -3.3749,-8.4006 -7.6703,-18.15642 -4.2954,-9.75581 -7.71586,-17.83179 -7.60103,-17.94662 0.11483,-0.11483 4.36053,7.4708 9.43488,16.85696 5.07436,9.38616 9.29413,16.87144 9.37728,16.63395 0.0831,-0.23748 -3.71372,-8.15899 -8.43749,-17.60335 -4.72377,-9.44435 -8.49763,-17.26259 -8.38638,-17.37385 0.11126,-0.11126 4.58585,7.02146 9.94352,15.85048 5.35767,8.82902 9.93211,16.06068 10.16542,16.07036 0.23332,0.01 -0.13267,-0.9425 -0.81331,-2.11594 -6.16166,-10.6229 -17.48631,-31.1122 -17.29937,-31.29914 0.12954,-0.12955 4.79125,6.42754 10.35934,14.5713 5.5681,8.14376 10.37705,14.96335 10.68657,15.15464 0.69177,0.42754 1.7453,2.15473 -10.25455,-16.81162 -5.48044,-8.6621 -9.87583,-15.83788 -9.76753,-15.94619 0.1083,-0.10829 3.1734,3.6468 6.81133,8.34466 3.63793,4.69786 6.73514,8.54157 6.88268,8.54157 0.28138,0 -0.0951,-0.50431 -10.798,-14.4658 -3.66513,-4.781 -6.56379,-8.79281 -6.44146,-8.91513 0.12233,-0.12233 6.60623,6.83909 14.40868,15.46982 7.80244,8.63073 14.43614,15.78316 14.74155,15.89428 0.60849,0.22141 -0.63833,-1.39138 -13.82547,-17.88363 -4.90594,-6.13552 -8.91216,-11.3313 -8.90273,-11.54619 0.009,-0.21488 5.76006,5.48279 12.77916,12.66151 7.01909,7.17871 12.77191,12.8883 12.78404,12.68795 0.0122,-0.20033 -5.71396,-6.75154 -12.72464,-14.55823 -7.01068,-7.80668 -12.67294,-14.27344 -12.58278,-14.37057 0.0902,-0.0971 6.18809,5.32457 13.55098,12.0482 7.36289,6.72363 13.64638,12.31425 13.9633,12.42362 0.68746,0.23723 1.19479,0.83509 -10.14913,-11.96014 -5.00063,-5.64041 -8.99686,-10.35047 -8.88052,-10.46681 0.11634,-0.11634 4.14317,3.20906 8.94853,7.38976 4.80535,4.18072 9.28203,7.94699 9.94818,8.3695 1.55239,0.9846 0.87042,0.3659 -13.28372,-12.05142 -6.26058,-5.49238 -11.28693,-10.0821 -11.16965,-10.19938 0.11728,-0.11728 6.57409,4.23164 14.34846,9.66426 7.77438,5.43262 14.23388,9.77883 14.35447,9.65825 0.12058,-0.12058 -6.22216,-5.14833 -14.09497,-11.17277 -7.87282,-6.02444 -14.22619,-11.04155 -14.11859,-11.14915 0.1076,-0.1076 6.80541,3.77441 14.88402,8.62669 8.07862,4.85227 14.79756,8.71315 14.93098,8.57973 0.13343,-0.13343 -4.98658,-3.67306 -11.3778,-7.86584 -6.39122,-4.19278 -11.52513,-7.71851 -11.40868,-7.83496 0.11644,-0.11644 5.58451,2.28447 12.15126,5.33535 6.56675,3.05089 12.02713,5.45948 12.13419,5.35243 0.10705,-0.10705 -5.90896,-3.31544 -13.36892,-7.12975 -7.45996,-3.8143 -13.48015,-7.01851 -13.3782,-7.12047 0.15237,-0.15236 24.37136,7.93796 27.5933,9.21751 0.58802,0.23353 0.84322,0.19124 0.65767,-0.10898 -0.16675,-0.26982 -7.32019,-3.84696 -15.89652,-7.94919 -8.57633,-4.10223 -15.49409,-7.55784 -15.37281,-7.67912 0.12128,-0.12128 7.47769,2.19851 16.34758,5.15509 8.86989,2.95659 16.21676,5.28592 16.32638,5.1763 0.10963,-0.10962 -6.24946,-3.11981 -14.13129,-6.68931 -7.88184,-3.5695 -14.12942,-6.55707 -13.8835,-6.63904 0.24591,-0.082 6.6142,1.67655 14.15175,3.90782 7.53755,2.23127 13.81023,3.95126 13.93928,3.82221 0.12906,-0.12906 -0.85437,-0.56 -2.18539,-0.95766 -16.86782,-5.0394 -29.83218,-9.18687 -29.02647,-9.28596 0.55221,-0.0679 8.06351,1.08751 16.69177,2.56761 8.62826,1.48009 15.68757,2.55222 15.68734,2.38251 -2.3e-4,-0.16972 -7.69614,-2.00285 -17.10203,-4.07363 -9.4059,-2.07079 -16.75384,-3.83689 -16.32878,-3.92469 0.70756,-0.14615 28.35191,2.1287 32.42721,2.66843 1.34905,0.17866 1.5239,0.12478 0.75301,-0.23206 -0.55221,-0.25561 -9.81426,-1.50125 -20.58233,-2.76808 -10.76807,-1.26683 -19.91717,-2.4016 -20.33133,-2.52171 -0.41415,-0.12012 8.96085,-0.12963 20.83334,-0.0211 11.87249,0.10849 21.02158,0.0247 20.33132,-0.18628 -0.69026,-0.21095 -8.57478,-0.80213 -17.52115,-1.31372 -8.94637,-0.5116 -15.83643,-1.09347 -15.31124,-1.29305 0.52518,-0.19958 8.29675,-0.86169 17.27014,-1.47136 8.9734,-0.60967 16.42822,-1.22452 16.56627,-1.36634 0.13805,-0.14182 -7.99448,-0.13196 -18.07229,0.0219 l -18.32329,0.27977 12.04819,-1.90183 c 6.62651,-1.04601 14.75904,-2.31603 18.07229,-2.82226 9.74156,-1.48843 5.50668,-1.37891 -11.2678,0.2914 -8.61578,0.85792 -16.02729,1.49008 -16.47003,1.4048 -0.44274,-0.0853 3.92287,-1.25091 9.70136,-2.59029 19.20046,-4.45044 23.34986,-5.47091 23.13192,-5.68885 -0.11885,-0.11884 -7.28528,1.04782 -15.92541,2.59259 -8.64014,1.54477 -16.04296,2.74359 -16.45072,2.66406 -0.40776,-0.0795 3.07865,-1.34745 7.74756,-2.81759 20.85892,-6.56801 24.3682,-7.71952 24.16004,-7.92767 -0.12184,-0.12184 -7.627,1.71035 -16.67814,4.07153 -9.05114,2.36117 -16.54307,4.20659 -16.64874,4.10092 -0.10567,-0.10567 6.9863,-3.0677 15.75994,-6.5823 8.77364,-3.51459 16.17797,-6.6097 16.45407,-6.87801 0.53106,-0.51608 -1.06106,0.052 -18.48605,6.59582 -6.02577,2.26293 -11.06112,4.00924 -11.18968,3.88068 -0.12855,-0.12855 6.33727,-3.70382 14.3685,-7.94503 8.03122,-4.24121 14.4175,-7.772865 14.19173,-7.848121 -0.22577,-0.07526 -7.50639,2.911101 -16.17916,6.636361 -8.67278,3.72526 -15.84193,6.69995 -15.93145,6.61043 -0.0895,-0.0895 6.83601,-4.20901 15.39007,-9.15441 8.55405,-4.945398 15.55826,-9.179937 15.56491,-9.410087 0.007,-0.230146 -5.76953,2.553735 -12.83597,6.186405 -7.06644,3.632672 -12.95071,6.502212 -13.07616,6.376762 -0.12545,-0.12545 5.19697,-3.99196 11.8276,-8.592254 6.63063,-4.600291 12.21604,-8.623619 12.41203,-8.940732 0.19598,-0.317114 -0.41785,-0.106843 -1.36407,0.467269 -0.94623,0.574111 -7.67947,4.692073 -14.96278,9.151029 -7.2833,4.458958 -13.32944,8.020118 -13.43586,7.913698 -0.10642,-0.10642 6.13146,-5.126068 13.86197,-11.154768 7.7305,-6.028699 13.95775,-11.058975 13.83834,-11.178393 -0.11942,-0.119413 -6.00617,3.895939 -13.08168,8.923007 -7.07551,5.027068 -12.96796,9.036734 -13.09433,8.910364 -0.12637,-0.12637 5.0761,-5.009295 11.56104,-10.850941 6.48494,-5.841642 11.95998,-10.898384 12.16676,-11.237199 0.50766,-0.831812 -3.15395,2.273905 -11.87708,10.073946 -4.00351,3.579859 -7.35889,6.437339 -7.45639,6.349959 -0.0975,-0.08738 3.91271,-4.954437 8.91157,-10.815677 4.99888,-5.86124 8.98419,-10.761464 8.85626,-10.889389 -0.12792,-0.127925 -6.12797,5.242511 -13.33343,11.934303 -7.20547,6.691793 -13.18927,12.078469 -13.29734,11.970397 -0.10808,-0.108077 5.34879,-6.473499 12.12637,-14.145387 6.77757,-7.671887 12.22151,-14.050245 12.09762,-14.174126 -0.12388,-0.123882 -5.82927,5.654152 -12.67866,12.84008 -6.84938,7.185924 -12.54403,12.974709 -12.65477,12.863971 -0.11074,-0.110743 5.002,-6.820291 11.36165,-14.91011 6.35963,-8.089824 11.45593,-14.81582 11.32509,-14.946659 -0.13084,-0.13084 -0.31046,-0.143765 -0.39915,-0.02872 -2.45993,3.19078 -22.64248,26.518556 -22.80366,26.357367 -0.12657,-0.126572 4.1635,-6.513499 9.53349,-14.193178 10.69389,-15.293411 11.65941,-16.724066 11.28675,-16.724066 -0.13867,0 -5.29124,6.658053 -11.45015,14.795672 -6.15892,8.137621 -11.28899,14.704714 -11.40016,14.593545 -0.11117,-0.111175 4.18985,-7.277511 9.55782,-15.925192 11.33082,-18.253689 10.70998,-17.218349 10.09831,-16.840323 -0.26064,0.161089 -5.1961,7.305985 -10.96767,15.877546 -5.77158,8.571563 -10.57994,15.498501 -10.68524,15.393194 -0.1053,-0.105306 4.02679,-7.795497 9.18244,-17.089317 5.15564,-9.293819 9.27855,-16.9932 9.16202,-17.109737 -0.11654,-0.116536 -4.02854,6.551287 -8.69333,14.817386 -4.66479,8.266101 -8.57456,14.936156 -8.68836,14.822346 -0.11381,-0.113805 2.6809,-6.596762 6.21047,-14.406564 8.86709,-19.620062 8.84771,-19.575317 8.34226,-19.262931 -0.2479,0.153212 -4.48553,7.856645 -9.41694,17.11874 -4.93142,9.262095 -9.02656,16.659129 -9.10032,16.437854 -0.0738,-0.221276 3.3692,-8.511004 7.65102,-18.421616 4.28182,-9.910612 7.68515,-18.119273 7.56296,-18.241467 -0.1222,-0.122195 -1.21139,1.89192 -2.42045,4.475811 -9.64429,20.611108 -14.64085,31.006398 -14.81818,30.829069 -0.1148,-0.114799 2.84708,-8.300292 6.58194,-18.189985 8.29064,-21.953072 7.62526,-20.100489 6.99916,-19.487284 -0.28192,0.276104 -3.97722,8.90697 -8.2118,19.1797 -4.23456,10.272731 -7.77912,18.59779 -7.87677,18.500134 -0.1289,-0.128901 9.83131,-31.132864 12.8306,-39.938871 0.17236,-0.506058 0.0892,-0.588376 -0.25375,-0.251004 -0.28062,0.276105 -3.52986,8.926318 -7.22053,19.222696 -3.69068,10.296379 -6.77492,18.526898 -6.85387,18.290035 -0.0789,-0.236857 2.25033,-9.077246 5.17618,-19.64531 2.92584,-10.568065 5.22225,-19.312142 5.1031,-19.431284 -0.11914,-0.119142 -2.43887,7.576187 -5.15496,17.10073 -2.71608,9.524544 -5.02084,17.23484 -5.12169,17.133992 -0.10085,-0.100848 1.42174,-8.365384 3.38354,-18.365635 1.96179,-10.000251 3.49082,-18.410515 3.39783,-18.689475 -0.093,-0.278959 -2.53187,8.569636 -5.41975,19.663545 -2.88788,11.09391 -5.31737,19.851786 -5.39886,19.461946 -0.13355,-0.6389 6.57247,-37.852218 7.25565,-40.263328 0.18826,-0.664419 0.11645,-0.834217 -0.21231,-0.502008 -0.27323,0.276105 -2.49583,8.932976 -4.9391,19.237493 -2.44328,10.304516 -4.50764,18.539533 -4.58747,18.300038 -0.1102,-0.330608 3.53778,-24.560985 5.65143,-37.537531 0.19892,-1.221264 0.15556,-1.316184 -0.22933,-0.502008 -0.26104,0.552209 -2.01231,10.153113 -3.8917,21.335341 -1.87939,11.182229 -3.48093,19.879518 -3.55898,19.32731 -0.078,-0.552209 0.76909,-10.116398 1.88253,-21.253753 2.96626,-29.670466 2.56112,-29.229503 -1.30872,1.424435 -1.34196,10.63002 -2.51256,18.437992 -2.60133,17.351047 -0.0888,-1.086944 0.32769,-10.51153 0.92545,-20.943523 0.59777,-10.431993 0.97061,-19.25653 0.82854,-19.610083 -0.14207,-0.353552 -0.29217,0.147841 -0.33355,1.114206 -0.0414,0.966365 -0.9421,11.470884 -2.00157,23.343373 l -1.92633,21.586346 0.27315,-23.594378 c 0.15023,-12.976907 0.15637,-23.481425 0.0137,-23.343373 -0.14273,0.138052 -0.67951,9.851907 -1.19284,21.586345 -1.049,23.979709 -1.3683,23.76875 -1.89951,-1.25502 -0.50528,-23.801589 -1.02484,-23.000719 -1.30271,2.008032 L 234.00602,76.85743 232.5489,55.02008 c -0.80143,-12.010542 -1.61668,-22.020074 -1.81168,-22.243405 -0.19501,-0.223331 -0.27394,0.680284 -0.17541,2.008032 0.34853,4.69649 1.74807,42.932191 1.57769,43.102567 -0.0951,0.09511 -1.27292,-9.924503 -2.61735,-22.265808 -1.34444,-12.341304 -2.58286,-22.599891 -2.75206,-22.79686 -0.16919,-0.196969 0.09,7.25785 0.5759,16.566265 1.33455,25.563848 1.03521,26.603381 -1.62093,5.629209 -1.24128,-9.801707 -2.32337,-17.363923 -2.40463,-16.804925 -0.0813,0.558997 0.88599,9.243563 2.14945,19.299035 1.26347,10.055473 2.2326,18.618094 2.15362,19.028049 -0.079,0.409955 -1.79584,-7.709855 -3.81527,-18.044017 -4.42487,-22.643608 -4.6459,-23.691342 -4.9367,-23.40054 -0.12586,0.125854 1.37363,9.657998 3.33218,21.182542 1.95856,11.524544 3.48959,21.167999 3.40228,21.429902 -0.0873,0.261897 -2.38747,-8.746009 -5.1115,-20.017575 -2.72402,-11.271566 -5.17234,-20.719659 -5.44069,-20.995764 -0.31858,-0.327773 -0.38639,-0.15354 -0.19537,0.502008 0.70192,2.408881 8.89292,41.546516 8.72937,41.71006 -0.14102,0.141014 -9.05526,-29.904804 -11.50905,-38.791677 -0.2669,-0.966631 -0.59728,-1.645499 -0.73419,-1.508596 -0.1369,0.136903 2.03124,9.008054 4.81808,19.713667 2.78685,10.705614 4.99158,19.691004 4.8994,19.967535 -0.0922,0.276526 -3.09098,-8.117579 -6.66401,-18.653571 -3.57303,-10.535992 -6.5659,-18.951986 -6.65081,-18.702209 -0.0849,0.249778 2.48248,9.067644 5.70531,19.595259 3.22283,10.527615 5.76913,19.231671 5.65845,19.342348 -0.11067,0.110678 -3.44733,-8.036101 -7.41478,-18.103952 -3.96746,-10.067851 -7.30481,-18.21394 -7.41633,-18.102419 -0.11152,0.111521 2.76787,7.924909 6.39863,17.363084 3.63077,9.438175 6.52129,17.240421 6.42339,17.338328 -0.0979,0.09791 -3.78935,-7.252788 -8.2032,-16.334873 -4.41386,-9.082086 -8.18903,-16.521202 -8.38928,-16.531367 -0.43722,-0.0222 -1.10197,-1.715488 7.85707,20.014137 4.03039,9.775471 7.23605,17.865516 7.12369,17.977881 -0.11236,0.112359 -4.22198,-7.713268 -9.13248,-17.390285 -4.91049,-9.677018 -9.02697,-17.49578 -9.14773,-17.375027 -0.12075,0.120754 3.44138,8.042062 7.91584,17.602908 4.47446,9.560847 8.03323,17.485506 7.90838,17.610361 -0.12485,0.124854 -2.6606,-4.015628 -5.63499,-9.20107 -11.19141,-19.510668 -13.4175,-23.28593 -13.61446,-23.088978 -0.11132,0.111328 3.8908,7.931497 8.8936,17.378156 5.00281,9.446661 9.00161,17.270145 8.88624,17.385521 -0.11538,0.115377 -4.80038,-6.908961 -10.41111,-15.609645 -5.61073,-8.700682 -10.30338,-15.717371 -10.42811,-15.592643 -0.12473,0.124729 3.42289,6.818078 7.88359,14.87411 4.4607,8.056029 8.02483,14.732872 7.92027,14.837425 -0.10455,0.104553 -4.121,-5.46254 -8.92545,-12.371311 -4.80445,-6.908773 -9.06514,-12.832622 -9.46819,-13.164108 -0.40305,-0.331487 4.06498,6.591258 9.92895,15.383878 5.86398,8.79262 10.5753,16.073062 10.4696,16.17876 -0.10569,0.105698 -5.34249,-6.140944 -11.63732,-13.881421 -6.29483,-7.74048 -11.54835,-13.970392 -11.67449,-13.844249 -0.12614,0.126144 4.66568,6.7048 10.6485,14.619239 5.98282,7.914438 10.76486,14.502877 10.62676,14.640979 -0.13811,0.138103 -5.48,-5.467696 -11.87088,-12.457329 -6.39088,-6.989633 -11.89197,-12.795889 -12.22464,-12.90279 -0.33267,-0.106901 -0.12916,0.344906 0.45226,1.004016 5.10169,5.783436 23.34975,27.66166 23.19823,27.813171 -0.1068,0.106808 -6.00908,-5.442495 -13.11618,-12.331782 -7.10709,-6.889287 -13.06415,-12.525979 -13.2379,-12.525979 -0.44345,0 0.15969,0.658293 13.50488,14.739714 6.54949,6.910808 11.81759,12.655688 11.70688,12.766401 -0.11071,0.110708 -4.90462,-3.83369 -10.65314,-8.765326 -15.00456,-12.87236 -16.22648,-13.886517 -16.45552,-13.65747 -0.11336,0.113353 5.86389,5.845441 13.28278,12.737966 7.41888,6.892526 13.41423,12.606518 13.32298,12.697768 -0.0912,0.0912 -6.53026,-4.59213 -14.30893,-10.407501 -7.77867,-5.815367 -14.24052,-10.573399 -14.35967,-10.573399 -0.66143,0 0.71034,1.235171 10.35257,9.321657 5.81307,4.87514 10.47031,8.962791 10.34944,9.083664 -0.12087,0.120874 -5.14811,-2.841355 -11.17164,-6.582736 -6.02353,-3.741375 -11.16305,-6.802505 -11.42115,-6.802505 -0.6106,0 -0.36521,0.182832 15.12197,11.266732 7.25824,5.194598 13.10475,9.536788 12.99223,9.649308 -0.11251,0.11251 -6.7949,-3.44607 -14.84973,-7.907962 -8.05484,-4.461898 -14.7461,-8.011602 -14.86947,-7.888233 -0.12336,0.123363 6.53406,4.384613 14.79428,9.469445 8.26022,5.08482 14.9282,9.33552 14.81772,9.44599 -0.11047,0.11047 -7.1209,-3.00711 -15.57872,-6.92796 -8.45783,-3.920854 -15.48068,-7.02602 -15.60633,-6.900367 -0.12565,0.125648 6.79944,3.893333 15.38908,8.372627 8.58965,4.4793 15.53029,8.23142 15.42365,8.33807 -0.10664,0.10664 -7.06443,-2.38663 -15.46175,-5.54058 -8.39732,-3.15396 -15.71967,-5.89875 -16.27187,-6.09953 -0.68272,-0.24824 -0.84337,-0.20017 -0.50201,0.15023 0.2761,0.28342 6.65822,3.17777 14.18248,6.4319 7.52426,3.25413 13.59991,5.99716 13.50144,6.09563 -0.0985,0.0985 -6.46797,-1.51395 -14.15445,-3.58316 -7.68648,-2.06921 -14.06526,-3.67236 -14.17507,-3.56256 -0.23387,0.23388 2.10913,0.95031 20.08168,6.14053 7.37659,2.13025 13.32912,3.95604 13.22784,4.05733 -0.10129,0.10128 -7.67632,-0.97436 -16.83342,-2.39032 -9.1571,-1.41595 -16.89585,-2.49226 -17.19723,-2.3918 -0.30137,0.10046 6.547,2.04722 15.21862,4.32613 16.48821,4.33312 18.75548,4.98617 17.53773,5.05149 -0.40639,0.0218 -7.83619,-0.87449 -16.51066,-1.99175 -8.67447,-1.11726 -16.13564,-1.95874 -16.58038,-1.86996 -0.44474,0.0888 7.25095,1.62178 17.10154,3.40669 9.85059,1.7849 17.84946,3.30598 17.77526,3.38018 -0.0742,0.0742 -7.25581,-0.22033 -15.95914,-0.65451 -8.70332,-0.43418 -16.81514,-0.71845 -18.02626,-0.63171 -1.21112,0.0867 5.53267,0.93659 14.98619,1.88856 9.45352,0.95195 16.93749,1.88579 16.63105,2.07517 -0.30643,0.1894 -7.58932,0.51177 -16.1842,0.71641 -8.59487,0.20463 -16.07885,0.55543 -16.63105,0.77955 -0.56623,0.2298 4.03056,0.45202 10.54216,0.50964 6.35041,0.0562 16.29017,0.23992 22.08836,0.40832 l 10.54217,0.30617 -21.33534,1.95217 c -11.73444,1.0737 -21.49859,2.09538 -21.69812,2.2704 -0.19952,0.17503 5.44807,-0.081 12.5502,-0.56886 7.10214,-0.4879 13.78501,-0.83187 14.85083,-0.76438 1.28533,0.0814 -3.06741,1.22148 -12.92666,3.38577 -8.17548,1.79468 -14.86454,3.38992 -14.86456,3.54499 -3e-5,0.15506 7.83586,-0.80044 17.41309,-2.12334 9.57722,-1.32291 17.47822,-2.3402 17.55776,-2.26065 0.0795,0.0795 -7.64645,2.2765 -17.16888,4.88214 -9.52242,2.60563 -17.08166,4.81479 -16.7983,4.90924 0.28335,0.0944 7.87392,-1.44727 16.86793,-3.42606 8.994,-1.97878 16.43087,-3.51965 16.52636,-3.42415 0.0955,0.0955 -5.74128,2.2921 -12.97062,4.88133 -18.77312,6.72372 -19.98298,7.17845 -19.74145,7.41998 0.11942,0.11942 7.35154,-1.94299 16.07139,-4.58314 8.71985,-2.64014 16.14181,-4.79465 16.49325,-4.7878 0.35144,0.007 -6.47698,3.18173 -15.17427,7.05528 -8.69729,3.87355 -16.03916,7.27071 -16.31526,7.54925 -0.58528,0.59041 -1.79465,1.03415 17.48208,-6.41443 8.23463,-3.18188 15.04295,-5.7079 15.12959,-5.61337 0.0866,0.0945 -7.03611,4.00338 -15.82836,8.68636 -8.79225,4.68297 -15.88652,8.61388 -15.76505,8.73536 0.12147,0.12147 7.0102,-3.00487 15.30828,-6.94742 8.29808,-3.94254 15.19026,-7.06543 15.31595,-6.93974 0.12569,0.1257 -6.40845,4.39039 -14.52032,9.47709 -8.11186,5.08671 -14.58467,9.31186 -14.38401,9.38922 0.20065,0.0774 6.9872,-3.59607 15.08121,-8.16317 8.09402,-4.56711 14.80553,-8.2147 14.91449,-8.10575 0.10895,0.10896 -6.25862,4.8885 -14.15015,10.62122 -19.48871,14.15735 -19.63506,14.50647 -1.25347,2.99013 6.41626,-4.01988 11.76529,-7.20951 11.88673,-7.08807 0.12145,0.12145 -5.0933,4.58291 -11.58832,9.91436 -6.49502,5.33145 -11.71208,9.79059 -11.59347,9.9092 0.11861,0.11862 0.50349,-0.0126 0.85529,-0.29143 6.48295,-5.13948 26.11248,-19.76221 26.29019,-19.5845 0.13279,0.13279 -5.41484,5.59989 -12.32805,12.14913 -6.91321,6.54923 -12.56948,12.01322 -12.56948,12.1422 0,0.50216 1.69161,-0.90267 14.47032,-12.01711 7.26841,-6.32179 13.28524,-11.41695 13.37072,-11.32259 0.0855,0.0944 -5.6701,6.38393 -12.79017,13.97681 -7.12008,7.59287 -12.86232,13.89155 -12.76053,13.99706 0.10178,0.10552 5.76064,-5.26419 12.57524,-11.93269 6.81461,-6.66849 12.49005,-12.02468 12.61209,-11.90263 0.12205,0.12205 -4.83563,6.28242 -11.01707,13.68972 -16.68121,19.98932 -16.16595,20.01157 1.74016,0.0751 6.38846,-7.11282 11.69767,-12.85013 11.79823,-12.74956 0.13812,0.13811 -19.47846,26.86107 -22.65892,30.86744 -0.41953,0.52847 -0.41396,0.65637 0.0218,0.50201 0.32164,-0.11392 5.60281,-6.4847 11.73594,-14.15728 6.13312,-7.67257 11.25255,-13.84872 11.37649,-13.72478 0.12395,0.12395 -4.43172,7.27762 -10.12371,15.89704 -5.69198,8.61943 -10.25044,15.77031 -10.12989,15.89086 0.12054,0.12054 4.46448,-5.66353 9.6532,-12.85349 5.18872,-7.18997 9.51956,-12.98714 9.62408,-12.88262 0.10453,0.10453 -3.55959,6.68706 -8.14248,14.62786 -4.58289,7.9408 -8.26948,14.60767 -8.19243,14.81528 0.0771,0.2076 4.86176,-7.06158 10.63267,-16.15374 5.77091,-9.09217 10.57249,-16.45127 10.67019,-16.35358 0.0977,0.0977 -3.23651,6.70888 -7.40936,14.69151 -13.85082,26.49658 -14.11036,27.8066 -0.85877,4.33472 4.71959,-8.35957 8.69202,-15.08827 8.82763,-14.95267 0.13561,0.13561 -2.64287,6.52346 -6.1744,14.19522 -3.53154,7.67176 -7.19232,15.64293 -8.13508,17.71371 -3.57145,7.84475 -0.39732,2.16543 7.85591,-14.05622 4.70594,-9.2495 8.56086,-16.57416 8.56648,-16.27703 0.006,0.29713 -3.26604,8.63609 -7.27035,18.53101 -4.00431,9.89493 -7.18584,18.08551 -7.07006,18.20129 0.11578,0.11577 0.69472,-0.88132 1.28655,-2.21576 0.59182,-1.33444 4.15808,-9.40458 7.92503,-17.93363 3.76694,-8.52905 6.91973,-15.29515 7.00619,-15.03578 0.0865,0.25939 -2.78322,8.81494 -6.37706,19.01235 -3.59385,10.19742 -6.53426,18.6465 -6.53426,18.77574 0,1.17061 1.8863,-3.37953 8.04887,-19.41546 3.95178,-10.28314 7.27542,-18.60626 7.38587,-18.49581 0.11044,0.11044 -2.43012,8.9261 -5.6457,19.59035 -3.21558,10.66425 -5.77349,19.60447 -5.68424,19.86715 0.0892,0.26269 3.65915,-10.26254 7.93312,-23.38939 4.27397,-13.12684 7.84151,-23.65503 7.92787,-23.39597 0.0864,0.25906 -2.68852,11.36214 -6.16639,24.67352 -3.47787,13.31138 -6.24841,24.42746 -6.15676,24.70241 0.0916,0.27495 2.75185,-8.57424 5.91157,-19.66487 3.15972,-11.09063 5.81234,-19.96259 5.89472,-19.71546 0.13175,0.39526 -7.49425,37.96119 -8.23153,40.54879 -0.18562,0.65146 -0.11619,0.82774 0.19772,0.50201 0.26609,-0.2761 2.60699,-9.50939 5.20201,-20.51841 2.59501,-11.00902 4.78464,-19.68415 4.86583,-19.27808 0.0812,0.40607 -1.33733,9.83981 -3.15227,20.96387 -1.81493,11.12405 -3.20237,20.32306 -3.08319,20.44224 0.26706,0.26706 0.35559,-0.16431 4.89501,-23.85004 2.02684,-10.57559 3.75017,-19.03335 3.82961,-18.795 0.0795,0.23835 -0.9896,9.85629 -2.37568,21.3732 -2.49971,20.77012 -2.70837,22.78507 -2.31768,22.38143 0.11135,-0.11504 1.6362,-9.92302 3.38855,-21.79551 1.75235,-11.87249 3.23949,-20.90864 3.30475,-20.08033 0.0653,0.82832 -0.61995,10.9337 -1.52268,22.45643 -0.90274,11.52271 -1.50052,20.78476 -1.32841,20.58232 0.17211,-0.20244 1.30913,-7.37107 2.5267,-15.93031 2.54249,-17.87302 2.84829,-17.3133 1.83812,3.36443 -0.34668,7.09643 -0.49512,12.74402 -0.32986,12.5502 0.16526,-0.19381 0.95637,-10.96985 1.75801,-23.94676 l 1.45754,-23.59438 0.25101,24.09639 0.251,24.09638 0.37651,-13.00813 c 0.20707,-7.15448 0.40568,-18.33671 0.44135,-24.8494 l 0.0649,-11.84126 1.40144,22.33936 c 0.7708,12.28664 1.41933,23.52535 1.44118,24.97489 0.0218,1.44955 0.17726,2.63555 0.34534,2.63555 0.16808,0 0.17949,-9.99624 0.0254,-22.21386 l 10e-6,0 z m 18.54663,11.80765 c -0.16682,-0.16681 -0.28547,0.12969 -0.26367,0.65888 0.0241,0.58482 0.14304,0.70377 0.30329,0.3033 0.14502,-0.36239 0.12719,-0.79537 -0.0396,-0.96218 l -2e-5,0 z m 21.78505,-26.93193 c 0,-0.10424 -0.39533,-0.49957 -0.87851,-0.87851 -0.79622,-0.62443 -0.81397,-0.60668 -0.18954,0.18954 0.65581,0.83622 1.06805,1.10215 1.06805,0.68897 z m -1.50602,-2.00803 c 0,-0.10424 -0.39533,-0.49957 -0.87852,-0.87851 -0.79621,-0.62443 -0.81397,-0.60668 -0.18954,0.18954 0.65581,0.83622 1.06806,1.10215 1.06806,0.68897 z"
       id="path4938"
       inkscape:connector-curvature="0"
       transform="translate(0,802.36218)" />
    <g
       id="g5028"
       transform="matrix(1.1740745,0,0,1.1286228,-86.555374,-79.823641)"
       inkscape:export-xdpi="90"
       inkscape:export-ydpi="90"
       inkscape:export-filename="C:\Users\shota\Documents\ショートカット\html\img\contents3.png">
      <g
         id="g3847"
         transform="matrix(1.314859,0,0,1.314859,-58.347271,-291.38454)"
         inkscape:export-filename="C:\Users\shota\Documents\ショートカット\html\img\contents3.png"
         inkscape:export-xdpi="90"
         inkscape:export-ydpi="90">
        <path
           sodipodi:type="arc"
           style="fill:#fffaf0;fill-opacity:1;stroke:#000000;stroke-width:0.52246433;stroke-linejoin:miter;stroke-miterlimit:4;stroke-opacity:1;stroke-dasharray:none;stroke-dashoffset:0"
           id="path4994"
           sodipodi:cx="222.89157"
           sodipodi:cy="90.61245"
           sodipodi:rx="56.726906"
           sodipodi:ry="42.921688"
           d="m 279.61848,90.61245 c 0,23.70499 -25.3975,42.92169 -56.72691,42.92169 -31.3294,0 -56.7269,-19.2167 -56.7269,-42.92169 0,-23.704994 25.3975,-42.921688 56.7269,-42.921688 31.32941,0 56.72691,19.216694 56.72691,42.921688 z"
           transform="matrix(1.3274336,0,0,1.2046784,-34.829588,756.45633)" />
        <path
           style="fill:none;stroke:#000000;stroke-width:0.66069126px;stroke-linecap:butt;stroke-linejoin:miter;stroke-opacity:1"
           d="m 240.90081,113.12965 c 0,0 27.67349,2.8342 -0.43896,7.85428 -28.11245,5.02008 18.5743,-3.01204 18.5743,-3.01204 l 22.34946,-4.98856"
           id="path5016"
           inkscape:connector-curvature="0"
           transform="translate(0,802.36218)"
           sodipodi:nodetypes="cscc" />
        <rect
           style="fill:#fffaf0;fill-opacity:1;stroke:none"
           id="rect5018"
           width="10.060361"
           height="24.144869"
           x="550.37225"
           y="747.63879"
           transform="matrix(0.93712622,0.34899061,-0.34899061,0.93712622,0,0)" />
        <rect
           style="fill:#fffaf0;fill-opacity:1;stroke:none"
           id="rect5020"
           width="15.828094"
           height="4.9796252"
           x="50.670631"
           y="949.47235"
           transform="matrix(0.97478791,-0.22313344,0.22313344,0.97478791,0,0)" />
        <rect
           style="fill:#fffaf0;fill-opacity:1;stroke:none"
           id="rect5022"
           width="8.1808128"
           height="4.9796252"
           x="255.73932"
           y="111.45971"
           transform="translate(0,802.36218)" />
        <path
           style="fill:#fffaf0;fill-opacity:1;stroke:none"
           d="m 252.60001,118.2247 c 0.89087,-0.48421 1.27259,-1.4718 0.86398,-2.23529 -0.23148,-0.43253 -0.23873,-0.43315 1.17936,0.10062 1.0977,0.41317 1.4155,0.44575 4.49461,0.46074 l 3.3134,0.0161 -1.42275,0.34005 c -1.36786,0.32693 -8.34855,1.58957 -8.71434,1.57621 -0.0978,-0.004 0.0308,-0.11988 0.28574,-0.25847 z"
           id="path5024"
           inkscape:connector-curvature="0"
           transform="translate(0,802.36218)" />
        <path
           style="fill:#fffaf0;fill-opacity:1;stroke:none"
           d="m 253.1504,117.74118 c 0.45599,-0.48814 0.52071,-0.67274 0.44188,-1.26047 -0.0901,-0.67181 -0.0808,-0.68567 0.38151,-0.56963 0.88345,0.22174 0.30372,-0.0508 -2.21238,-1.03991 -3.05841,-1.20234 -3.34001,-1.26866 -8.80057,-2.07265 -4.64908,-0.6845 -11.06767,-2.33548 -16.26243,-4.18299 -15.18071,-5.399 -27.37808,-14.331178 -34.14571,-25.005033 -3.67513,-5.79638 -5.7443,-11.972691 -6.09717,-18.199593 -0.23408,-4.13066 0.14942,-7.759083 1.24595,-11.788496 l 0.54447,-2.000743 72.80484,0 c 40.04266,0 72.80484,0.03881 72.80484,0.08624 0,0.04743 0.20043,0.777873 0.4454,1.623209 2.52643,8.71819 1.65386,17.809402 -2.51769,26.231698 -3.77741,7.626525 -10.14431,14.582034 -18.39971,20.100723 -9.1985,6.149145 -20.26913,10.522115 -32.52544,12.847745 -1.80956,0.34337 -5.4109,1.11599 -8.00297,1.71694 -9.52947,2.20933 -10.49278,2.41818 -10.49278,2.27481 0,-0.0804 -1.42053,-0.12917 -3.15673,-0.10832 l -3.15673,0.0379 3.02335,0.102 c 1.66284,0.0561 2.94331,0.11982 2.8455,0.14159 -2.22781,0.49601 -8.503,1.63684 -9.00351,1.63684 -0.23003,0 -0.17609,-0.13066 0.23608,-0.57189 l 0,0 z"
           id="path5026"
           inkscape:connector-curvature="0"
           transform="translate(0,802.36218)" />
      </g>
    </g>
  </g>
</svg>
