<?xml version="1.0" encoding="UTF-8" standalone="no"?>
<!-- Created with Inkscape (http://www.inkscape.org/) -->

<svg
   xmlns:dc="http://purl.org/dc/elements/1.1/"
   xmlns:cc="http://creativecommons.org/ns#"
   xmlns:rdf="http://www.w3.org/1999/02/22-rdf-syntax-ns#"
   xmlns:svg="http://www.w3.org/2000/svg"
   xmlns="http://www.w3.org/2000/svg"
   xmlns:sodipodi="http://sodipodi.sourceforge.net/DTD/sodipodi-0.dtd"
   xmlns:inkscape="http://www.inkscape.org/namespaces/inkscape"
   id="svg2985"
   version="1.1"
   inkscape:version="0.48.4 r9939"
   width="1000"
   height="525"
   sodipodi:docname="new.svg"
   inkscape:export-filename="C:\Users\shota\Documents\ショートカット\html\img\new.png"
   inkscape:export-xdpi="90"
   inkscape:export-ydpi="90">
  <metadata
     id="metadata2991">
    <rdf:RDF>
      <cc:Work
         rdf:about="">
        <dc:format>image/svg+xml</dc:format>
        <dc:type
           rdf:resource="http://purl.org/dc/dcmitype/StillImage" />
        <dc:title></dc:title>
      </cc:Work>
    </rdf:RDF>
  </metadata>
  <defs
     id="defs2989" />
  <sodipodi:namedview
     pagecolor="#ffffff"
     bordercolor="#666666"
     borderopacity="1"
     objecttolerance="10"
     gridtolerance="10"
     guidetolerance="10"
     inkscape:pageopacity="0"
     inkscape:pageshadow="2"
     inkscape:window-width="648"
     inkscape:window-height="483"
     id="namedview2987"
     showgrid="false"
     inkscape:zoom="0.44952381"
     inkscape:cx="500"
     inkscape:cy="262.5"
     inkscape:window-x="625"
     inkscape:window-y="91"
     inkscape:window-maximized="0"
     inkscape:current-layer="g3776"
     showguides="true"
     inkscape:guide-bbox="true" />
  <path
     style="fill:#fffaf0;fill-opacity:1;stroke:#000000;stroke-width:3.79999995;stroke-linecap:round;stroke-linejoin:miter;stroke-miterlimit:4;stroke-opacity:1;stroke-dasharray:none;stroke-dashoffset:0"
     d="m 745.88804,150.00528 -44.57449,54.22069 c -11.00325,33.7284 -18.38896,40.19158 -21.23846,57.61246 l 49.42488,89.23897 22.04915,26.50193 -11.40526,7.58529 6.84316,10.50269 -26.2321,16.33748 40.00473,-11.5569 2.24716,-8.507 11.80289,-3.61362 120.44577,21.3436 160.94393,-29.42665 8.8123,-42.4034 c 17.1233,-86.58385 20.9806,-156.6627 -21.0496,-223.55113 0,0 -167.44329,-0.70242 -178.95195,-0.61844 -82.92831,0.60514 -119.12211,36.33403 -119.12211,36.33403 z"
     id="path2995"
     inkscape:connector-curvature="0"
     sodipodi:nodetypes="cccccccccccccccsc"
     inkscape:export-xdpi="90"
     inkscape:export-ydpi="90"
     inkscape:export-filename="C:\Users\shota\Documents\ショートカット\html\img\new.png" />
  <g
     id="g3776"
     inkscape:export-filename="C:\Users\shota\Documents\ショートカット\html\img\new.png"
     inkscape:export-xdpi="90"
     inkscape:export-ydpi="90"
     transform="translate(49.351433,61.152863)">
    <g
       id="g3099"
       inkscape:export-filename="C:\Users\shota\Documents\ショートカット\html\img\new.png"
       inkscape:export-xdpi="90"
       inkscape:export-ydpi="90">
      <g
         inkscape:export-ydpi="90"
         inkscape:export-xdpi="90"
         inkscape:export-filename="C:\Users\shota\Documents\ショートカット\html\img\new.png"
         id="g3793">
        <path
           inkscape:export-filename="C:\Users\shota\Documents\ショートカット\html\img\new.png"
           inkscape:export-ydpi="90"
           inkscape:export-xdpi="90"
           sodipodi:nodetypes="cccccccccccc"
           inkscape:connector-curvature="0"
           id="path2996"
           d="m 196.34823,20.750443 -28.27002,125.729787 62.22808,121.41221 44.37028,9.67613 -9.60171,12.31783 27.2891,19.32639 -36.76711,27.27915 61.43151,-28.61374 -19.18691,-15.8276 7.05133,-8.91927 84.73541,11.39142 157.54765,-49.57992"
           style="fill:none;stroke:#000000;stroke-width:3;stroke-linecap:butt;stroke-linejoin:miter;stroke-miterlimit:4;stroke-opacity:1;stroke-dasharray:none" />
        <path
           inkscape:connector-curvature="0"
           id="path3772"
           d="M 545.04876,247.10719 560.3408,4.8402734 195.30145,21.523423 206.7796,-11.91574"
           style="fill:none;stroke:#000000;stroke-width:1px;stroke-linecap:butt;stroke-linejoin:miter;stroke-opacity:1"
           sodipodi:nodetypes="cccc" />
      </g>
      <path
         transform="translate(-49.351433,-61.152863)"
         inkscape:connector-curvature="0"
         id="path3097"
         d="m 329.4882,382.73325 c 0,-0.29091 3.52435,-3.14163 7.8319,-6.33494 4.30755,-3.19332 7.83191,-5.93116 7.83191,-6.0841 0,-0.15293 -6.03616,-4.51072 -13.41369,-9.68397 -7.37753,-5.17326 -13.41929,-9.79835 -13.42613,-10.27797 -0.007,-0.47963 2.01857,-3.44146 4.50091,-6.58186 2.48234,-3.14039 4.28469,-5.93846 4.00522,-6.21793 -0.27947,-0.27946 -9.7368,-2.48308 -21.01629,-4.89692 -11.27949,-2.41384 -21.5533,-4.83675 -22.83069,-5.38423 -1.59773,-0.68479 -11.83764,-19.56289 -32.8126,-60.49268 l -30.49007,-59.49722 13.68251,-61.17098 c 7.52538,-33.64403 13.98364,-61.494328 14.35168,-61.889542 0.9464,-1.016287 359.05499,-17.200076 359.98642,-16.268653 0.82315,0.823145 -13.7296,235.669815 -14.6615,236.601705 -0.30692,0.30692 -35.15502,11.45555 -77.44023,24.77474 l -76.88219,24.2167 -39.22447,-5.26703 c -21.57347,-2.89687 -40.84324,-5.5244 -42.82173,-5.83896 -3.26299,-0.51878 -3.9647,-0.0713 -7.55219,4.81582 -2.17523,2.96325 -3.95496,5.84617 -3.95496,6.40648 0,0.56032 2.39153,2.88658 5.31451,5.16948 2.92298,2.2829 6.79385,5.37585 8.60194,6.87322 l 3.28742,2.72249 -14.18168,6.70282 c -14.41857,6.81478 -18.686,8.55125 -18.686,7.60353 z"
         style="fill:#fffaf0;fill-opacity:1;stroke:none" />
    </g>
  </g>
</svg>
